# xmcd CD Database Entry
#
# Track frame offsets:
# 182
# 13602
# 23740
# 34060
# 43820
# 57165
# 71000
# 83615
# 99007
# 110460
# 123340
# 135857
# 148600
# 159467
# 169100
# 181097
# 193270
# 205137
# 217387
# 229075
# 242452
#
# Disc length: 3403 seconds
#
# Revision: 2
# Processed by: cddbd v1.4PL0 Copyright (c) Steve Scherf et al.
# Submitted via: tcd 2.0b
#
DISCID=180d4915
DTITLE=Magic Sam - West Side Guitar 1957-1966
DYEAR=1900
DGENRE=
TTITLE0=Everything Gonna Be Alright
TTITLE1=Look Whatcha Done
TTITLE2=All My Whole Life
TTITLE3=Love Me With A Feeling
TTITLE4=All Your Love
TTITLE5=Call Me If You Need Me
TTITLE6=Roll Your Money Maker
TTITLE7=Easy Baby
TTITLE8=Magic Rocker
TTITLE9=Love Me This Way
TTITLE10=21 Days In Jail
TTITLE11=All Night Long
TTITLE12=Out Of Bad Luck
TTITLE13=Every Night About This Time
TTITLE14=Blue Light Boogie
TTITLE15=You Don't Have To Work
TTITLE16=My Charlie
TTITLE17=My Love Is Your Love
TTITLE18=She Belongs To Me
TTITLE19=Respect Me baby
TTITLE20=A Hard Road
EXTD=Flyright FLYCD 02
EXTT0=
EXTT1=
EXTT2=
EXTT3=
EXTT4=
EXTT5=
EXTT6=
EXTT7=
EXTT8=
EXTT9=
EXTT10=
EXTT11=
EXTT12=
EXTT13=
EXTT14=
EXTT15=
EXTT16=
EXTT17=
EXTT18=
EXTT19=
EXTT20=
PLAYORDER=
